<svg xmlns="http://www.w3.org/2000/svg" width="114" height="98.021" viewBox="0 0 114 98.021">
  <g id="Group_9" data-name="Group 9" transform="translate(0.426)">
    <g id="Group_7" data-name="Group 7" transform="translate(0 0)">
      <path id="Path_5" data-name="Path 5" d="M0,0H90.293V62.417H0Z" transform="translate(0.508)" fill="#4a0a2f"/>
      <rect id="Rectangle_4" data-name="Rectangle 4" width="91" height="9" transform="translate(-0.426 0.021)" fill="#fff"/>
      <path id="Path_2" data-name="Path 2" d="M1.212,0A1.212,1.212,0,1,1,0,1.212,1.212,1.212,0,0,1,1.212,0Z" transform="translate(4.447 3.636)" fill="#b7b7b7"/>
      <path id="Path_3" data-name="Path 3" d="M1.212,0A1.212,1.212,0,1,1,0,1.212,1.212,1.212,0,0,1,1.212,0Z" transform="translate(10.507 3.636)" fill="#b7b7b7"/>
      <path id="Path_4" data-name="Path 4" d="M1.212,0A1.212,1.212,0,1,1,0,1.212,1.212,1.212,0,0,1,1.212,0Z" transform="translate(16.567 3.636)" fill="#b7b7b7"/>
      <text id="_" data-name="{ }" transform="translate(14.574 26.021)" fill="#fc0000" font-size="9" font-family="Montserrat-Regular, Montserrat"><tspan x="0" y="0">{ }</tspan></text>
      <rect id="Rectangle_5" data-name="Rectangle 5" width="8" height="2" rx="1" transform="translate(11.574 36.021)" fill="#6f6f6f"/>
      <rect id="Rectangle_10" data-name="Rectangle 10" width="8" height="1" rx="0.5" transform="translate(14.574 41.021)" fill="#6f6f6f"/>
      <rect id="Rectangle_11" data-name="Rectangle 11" width="9" height="2" rx="1" transform="translate(17.574 46.021)" fill="#6f6f6f"/>
      <rect id="Rectangle_12" data-name="Rectangle 12" width="8" transform="translate(22.574 52.021)" fill="#6f6f6f"/>
      <rect id="Rectangle_6" data-name="Rectangle 6" width="25" height="2" rx="1" transform="translate(24.574 36.021)" fill="#6f6f6f"/>
      <rect id="Rectangle_7" data-name="Rectangle 7" width="25" height="1" rx="0.5" transform="translate(30.574 41.021)" fill="#6f6f6f"/>
      <rect id="Rectangle_8" data-name="Rectangle 8" width="24" height="2" rx="1" transform="translate(34.574 46.021)" fill="#6f6f6f"/>
      <rect id="Rectangle_9" data-name="Rectangle 9" width="24" height="1" rx="0.5" transform="translate(38.574 51.021)" fill="#6f6f6f"/>
    </g>
    <g id="Component_4_1" data-name="Component 4 – 1" transform="translate(72.574 24.021)">
      <g id="Rectangle_13" data-name="Rectangle 13" fill="#817c7c" stroke="#707070" stroke-width="1">
        <rect width="41" height="74" rx="6" stroke="none"/>
        <rect x="0.5" y="0.5" width="40" height="73" rx="5.5" fill="none"/>
      </g>
      <g id="Path_6" data-name="Path 6" transform="translate(3.621 7.519)" fill="#aaa">
        <path d="M 33.21307373046875 55.7978630065918 L 1.628093719482422 55.7978630065918 C 1.016603708267212 55.7978630065918 0.5000036954879761 55.4159049987793 0.5000036954879761 54.96379470825195 L 0.5000036954879761 1.334073424339294 C 0.5000036954879761 0.8819634318351746 1.016603708267212 0.5000033974647522 1.628093719482422 0.5000033974647522 L 33.21307373046875 0.5000033974647522 C 33.82456207275391 0.5000033974647522 34.34116363525391 0.8819634318351746 34.34116363525391 1.334073424339294 L 34.34116363525391 54.96379470825195 C 34.34116363525391 55.4159049987793 33.82456207275391 55.7978630065918 33.21307373046875 55.7978630065918 Z" stroke="none"/>
        <path d="M 1.628093719482422 1.000003814697266 C 1.23846435546875 1.000003814697266 1.000003814697266 1.216293334960938 1.000003814697266 1.334072113037109 L 1.000003814697266 54.96379470825195 C 1.000003814697266 55.08157348632812 1.23846435546875 55.2978630065918 1.628093719482422 55.2978630065918 L 33.21307373046875 55.2978630065918 C 33.60270309448242 55.2978630065918 33.84116363525391 55.08157348632812 33.84116363525391 54.96379470825195 L 33.84116363525391 1.334072113037109 C 33.84116363525391 1.216293334960938 33.60270309448242 1.000003814697266 33.21307373046875 1.000003814697266 L 1.628093719482422 1.000003814697266 M 1.628093719482422 3.814697265625e-06 L 33.21307373046875 3.814697265625e-06 C 34.11224365234375 3.814697265625e-06 34.84116363525391 0.5972824096679688 34.84116363525391 1.334072113037109 L 34.84116363525391 54.96379470825195 C 34.84116363525391 55.70058441162109 34.11224365234375 56.2978630065918 33.21307373046875 56.2978630065918 L 1.628093719482422 56.2978630065918 C 0.7289237976074219 56.2978630065918 3.814697265625e-06 55.70058441162109 3.814697265625e-06 54.96379470825195 L 3.814697265625e-06 1.334072113037109 C 3.814697265625e-06 0.5972824096679688 0.7289237976074219 3.814697265625e-06 1.628093719482422 3.814697265625e-06 Z" stroke="none" fill="#707070"/>
      </g>
      <g id="Ellipse_1" data-name="Ellipse 1" transform="translate(18 66)" fill="#cbcbcb" stroke="#707070" stroke-width="1">
        <ellipse cx="3.5" cy="2.5" rx="3.5" ry="2.5" stroke="none"/>
        <ellipse cx="3.5" cy="2.5" rx="3" ry="2" fill="none"/>
      </g>
      <g id="Rectangle_15" data-name="Rectangle 15" transform="translate(14 3)" fill="#dedddd" stroke="#707070" stroke-width="1">
        <rect width="14" height="1" rx="0.5" stroke="none"/>
        <rect x="0.5" y="0.5" width="13" fill="none"/>
      </g>
    </g>
  </g>
</svg>
