<svg xmlns="http://www.w3.org/2000/svg" xmlns:xlink="http://www.w3.org/1999/xlink" width="211" height="198" viewBox="0 0 211 198">
  <defs>
    <filter id="Rectangle_31" x="0" y="0" width="211" height="198" filterUnits="userSpaceOnUse">
      <feOffset dy="3" input="SourceAlpha"/>
      <feGaussianBlur stdDeviation="3" result="blur"/>
      <feFlood flood-opacity="0.161"/>
      <feComposite operator="in" in2="blur"/>
      <feComposite in="SourceGraphic"/>
    </filter>
    <filter id="Rectangle_39" x="15" y="44" width="180" height="27" filterUnits="userSpaceOnUse">
      <feOffset dy="3" input="SourceAlpha"/>
      <feGaussianBlur stdDeviation="3" result="blur-2"/>
      <feFlood flood-opacity="0.161"/>
      <feComposite operator="in" in2="blur-2"/>
      <feComposite in="SourceGraphic"/>
    </filter>
    <clipPath id="clip-path">
      <path id="Path_14" data-name="Path 14" d="M749.695,2657.717l4.6-4.26s.4,1.367,2.588,1.312a4.662,4.662,0,0,0,3.289-1.312l5.413,4.26-9.432,2.927Z" fill="#464646"/>
    </clipPath>
    <filter id="Path_66" x="80" y="65" width="59" height="79" filterUnits="userSpaceOnUse">
      <feOffset dx="4" dy="3" input="SourceAlpha"/>
      <feGaussianBlur stdDeviation="3" result="blur-3"/>
      <feFlood flood-opacity="0.161"/>
      <feComposite operator="in" in2="blur-3"/>
      <feComposite in="SourceGraphic"/>
    </filter>
  </defs>
  <g id="Group_234" data-name="Group 234" transform="translate(-714 -2560)">
    <g id="Group_26" data-name="Group 26" transform="translate(451 115)">
      <g id="Group_25" data-name="Group 25" transform="translate(15 9)">
        <g transform="matrix(1, 0, 0, 1, 248, 2436)" filter="url(#Rectangle_31)">
          <rect id="Rectangle_31-2" data-name="Rectangle 31" width="193" height="180" rx="54" transform="translate(9 6)" fill="#fff"/>
        </g>
      </g>
      <g id="Group_24" data-name="Group 24" transform="translate(7 -7)">
        <rect id="Rectangle_32" data-name="Rectangle 32" width="162" height="97" transform="translate(280 2502)" fill="#fff"/>
      </g>
    </g>
    <g transform="matrix(1, 0, 0, 1, 714, 2560)" filter="url(#Rectangle_39)">
      <rect id="Rectangle_39-2" data-name="Rectangle 39" width="162" height="9" transform="translate(24 50)" fill="#9b9494"/>
    </g>
    <g id="Group_30" data-name="Group 30" transform="translate(10 -2)">
      <rect id="Rectangle_40" data-name="Rectangle 40" width="41" height="61" transform="translate(737 2633)" fill="#d0d0d0"/>
      <circle id="Ellipse_3" data-name="Ellipse 3" cx="3" cy="3" r="3" transform="translate(754 2647)" fill="#adadad"/>
      <g id="Mask_Group_1" data-name="Mask Group 1" clip-path="url(#clip-path)">
        <circle id="Ellipse_2" data-name="Ellipse 2" cx="10" cy="10" r="10" transform="translate(747 2640)" fill="#fff"/>
      </g>
    </g>
    <g id="Group_31" data-name="Group 31" transform="translate(62 -2)">
      <g transform="matrix(1, 0, 0, 1, 652, 2562)" filter="url(#Path_66)">
        <path id="Path_66-2" data-name="Path 66" d="M0,0H41V61H0Z" transform="translate(85 71)" fill="#d0d0d0"/>
      </g>
      <circle id="Ellipse_3-2" data-name="Ellipse 3" cx="3" cy="3" r="3" transform="translate(754 2647)" fill="#adadad"/>
      <g id="Mask_Group_1-2" data-name="Mask Group 1" clip-path="url(#clip-path)">
        <circle id="Ellipse_2-2" data-name="Ellipse 2" cx="10" cy="10" r="10" transform="translate(747 2640)" fill="#fff"/>
      </g>
    </g>
    <g id="Group_32" data-name="Group 32" transform="translate(115 -2)">
      <rect id="Rectangle_40-2" data-name="Rectangle 40" width="41" height="61" transform="translate(737 2633)" fill="#d0d0d0"/>
      <circle id="Ellipse_3-3" data-name="Ellipse 3" cx="3" cy="3" r="3" transform="translate(754 2647)" fill="#adadad"/>
      <g id="Mask_Group_1-3" data-name="Mask Group 1" clip-path="url(#clip-path)">
        <circle id="Ellipse_2-3" data-name="Ellipse 2" cx="10" cy="10" r="10" transform="translate(747 2640)" fill="#fff"/>
      </g>
    </g>
  </g>
</svg>
