<svg xmlns="http://www.w3.org/2000/svg" xmlns:xlink="http://www.w3.org/1999/xlink" width="211" height="198" viewBox="0 0 211 198">
  <defs>
    <filter id="Rectangle_31" x="0" y="0" width="211" height="198" filterUnits="userSpaceOnUse">
      <feOffset dy="3" input="SourceAlpha"/>
      <feGaussianBlur stdDeviation="3" result="blur"/>
      <feFlood flood-opacity="0.161"/>
      <feComposite operator="in" in2="blur"/>
      <feComposite in="SourceGraphic"/>
    </filter>
  </defs>
  <g id="Group_26" data-name="Group 26" transform="translate(-267 -2442)">
    <g id="Group_25" data-name="Group 25" transform="translate(19 6)">
      <g transform="matrix(1, 0, 0, 1, 248, 2436)" filter="url(#Rectangle_31)">
        <rect id="Rectangle_31-2" data-name="Rectangle 31" width="193" height="180" rx="54" transform="translate(9 6)" fill="#fff"/>
      </g>
    </g>
    <g id="Group_92" data-name="Group 92" transform="translate(-13 -9)">
      <g id="Rectangle_72" data-name="Rectangle 72" transform="translate(306 2508)" fill="#d0d0d0" stroke="#707070" stroke-width="1">
        <rect width="67" height="48" rx="5" stroke="none"/>
        <rect x="0.5" y="0.5" width="66" height="47" rx="4.5" fill="none"/>
      </g>
      <path id="Path_56" data-name="Path 56" d="M0,0H53.173V33.791H0Z" transform="translate(313.264 2515.187)" fill="#bababa"/>
    </g>
    <g id="Group_93" data-name="Group 93" transform="translate(85 20)">
      <g id="Rectangle_72-2" data-name="Rectangle 72" transform="translate(306 2508)" fill="#d0d0d0" stroke="#707070" stroke-width="1">
        <rect width="67" height="48" rx="5" stroke="none"/>
        <rect x="0.5" y="0.5" width="66" height="47" rx="4.5" fill="none"/>
      </g>
      <path id="Path_56-2" data-name="Path 56" d="M0,0H53.173V33.791H0Z" transform="translate(313.264 2515.187)" fill="#bababa"/>
    </g>
    <path id="Path_57" data-name="Path 57" d="M0,0H67V4.445H0Z" transform="translate(293 2544)" fill="#5d5d5d"/>
    <path id="Path_58" data-name="Path 58" d="M0,0H67V4.445H0Z" transform="translate(391 2572)" fill="#525151"/>
    <g id="Group_94" data-name="Group 94">
      <path id="Path_59" data-name="Path 59" d="M347.78,2480.415s64.917-22.2,66.26,38.653" fill="none" stroke="#898989" stroke-width="2"/>
      <path id="Polygon_4" data-name="Polygon 4" d="M6.5,0,13,9H0Z" transform="matrix(-0.999, 0.035, -0.035, -0.999, 421.101, 2526.789)" fill="#888"/>
    </g>
    <g id="Group_95" data-name="Group 95" transform="translate(753.881 5079.707) rotate(180)">
      <path id="Path_59-2" data-name="Path 59" d="M347.78,2480.415s64.917-22.2,66.26,38.653" fill="none" stroke="#898989" stroke-width="1"/>
      <path id="Polygon_4-2" data-name="Polygon 4" d="M6.5,0,13,9H0Z" transform="matrix(-0.999, 0.035, -0.035, -0.999, 421.101, 2526.789)" fill="#898989"/>
    </g>
  </g>
</svg>
