<svg xmlns="http://www.w3.org/2000/svg" xmlns:xlink="http://www.w3.org/1999/xlink" width="211" height="198" viewBox="0 0 211 198">
  <defs>
    <filter id="Path_65" x="0" y="0" width="211" height="198" filterUnits="userSpaceOnUse">
      <feOffset dy="3" input="SourceAlpha"/>
      <feGaussianBlur stdDeviation="3" result="blur"/>
      <feFlood flood-opacity="0.161"/>
      <feComposite operator="in" in2="blur"/>
      <feComposite in="SourceGraphic"/>
    </filter>
  </defs>
  <g id="Group_233" data-name="Group 233" transform="translate(-1384 -2571)">
    <g id="Group_26" data-name="Group 26" transform="translate(1117 129)">
      <g id="Group_25" data-name="Group 25" transform="translate(19 6)">
        <g transform="matrix(1, 0, 0, 1, 248, 2436)" filter="url(#Path_65)">
          <path id="Path_65-2" data-name="Path 65" d="M54,0h85a54,54,0,0,1,54,54v72a54,54,0,0,1-54,54H54A54,54,0,0,1,0,126V54A54,54,0,0,1,54,0Z" transform="translate(9 6)" fill="#fff"/>
        </g>
      </g>
      <g id="Group_24" data-name="Group 24" transform="translate(7 -6)">
        <rect id="Rectangle_32" data-name="Rectangle 32" width="90" height="107" rx="7" transform="translate(321 2492)" fill="#fff"/>
        <text id="Payment_" data-name="Payment " transform="translate(341 2520)" fill="#a56262" font-size="12" font-family="LucidaGrande-Bold, Lucida Grande" font-weight="700"><tspan x="0" y="0">Payment </tspan></text>
        <g id="Rectangle_73" data-name="Rectangle 73" transform="translate(337 2526)" fill="#fff" stroke="#707070" stroke-width="1">
          <rect width="61" height="61" stroke="none"/>
          <rect x="0.5" y="0.5" width="60" height="60" fill="none"/>
        </g>
        <g id="Ellipse_10" data-name="Ellipse 10" transform="translate(359 2546)" fill="#7e7e7e" stroke="#707070" stroke-width="1">
          <circle cx="10" cy="10" r="10" stroke="none"/>
          <circle cx="10" cy="10" r="9.5" fill="none"/>
        </g>
      </g>
    </g>
    <path id="Path_62" data-name="Path 62" d="M252.921,2337.1l1.976,3.547,8.162-7.5" transform="matrix(0.996, -0.087, 0.087, 0.996, 1033.176, 373.292)" fill="none" stroke="#fff" stroke-width="2"/>
  </g>
</svg>
