<svg xmlns="http://www.w3.org/2000/svg" xmlns:xlink="http://www.w3.org/1999/xlink" width="211" height="198" viewBox="0 0 211 198">
  <defs>
    <filter id="Path_63" x="0" y="0" width="211" height="198" filterUnits="userSpaceOnUse">
      <feOffset dy="3" input="SourceAlpha"/>
      <feGaussianBlur stdDeviation="3" result="blur"/>
      <feFlood flood-opacity="0.161"/>
      <feComposite operator="in" in2="blur"/>
      <feComposite in="SourceGraphic"/>
    </filter>
    <filter id="Path_64" x="55" y="37" width="108" height="125" filterUnits="userSpaceOnUse">
      <feOffset dx="3" dy="3" input="SourceAlpha"/>
      <feGaussianBlur stdDeviation="3" result="blur-2"/>
      <feFlood flood-opacity="0.161"/>
      <feComposite operator="in" in2="blur-2"/>
      <feComposite in="SourceGraphic"/>
    </filter>
  </defs>
  <g id="Group_26" data-name="Group 26" transform="translate(-267 -2442)">
    <g id="Group_25" data-name="Group 25" transform="translate(19 6)">
      <g transform="matrix(1, 0, 0, 1, 248, 2436)" filter="url(#Path_63)">
        <path id="Path_63-2" data-name="Path 63" d="M54,0h85a54,54,0,0,1,54,54v72a54,54,0,0,1-54,54H54A54,54,0,0,1,0,126V54A54,54,0,0,1,54,0Z" transform="translate(9 6)" fill="#fff"/>
      </g>
    </g>
    <g id="Group_24" data-name="Group 24" transform="translate(7 -7)">
      <g transform="matrix(1, 0, 0, 1, 260, 2449)" filter="url(#Path_64)">
        <path id="Path_64-2" data-name="Path 64" d="M7,0H83a7,7,0,0,1,7,7v93a7,7,0,0,1-7,7H7a7,7,0,0,1-7-7V7A7,7,0,0,1,7,0Z" transform="translate(61 43)" fill="#9b9494"/>
      </g>
      <text id="Job_Post" data-name="Job Post" transform="translate(341 2520)" fill="#fff" font-size="12" font-family="LucidaGrande-Bold, Lucida Grande" font-weight="700"><tspan x="0" y="0">Job Post</tspan></text>
      <rect id="Rectangle_33" data-name="Rectangle 33" width="28" height="2" rx="1" transform="translate(338 2537)" fill="#4a2a2a"/>
      <rect id="Rectangle_34" data-name="Rectangle 34" width="37" height="2" rx="1" transform="translate(355 2548)" fill="#4a2a2a"/>
      <rect id="Rectangle_35" data-name="Rectangle 35" width="43" height="2" rx="1" transform="translate(333 2559)" fill="#4a2a2a"/>
      <rect id="Rectangle_36" data-name="Rectangle 36" width="37" height="2" rx="1" transform="translate(333 2581)" fill="#4a2a2a"/>
      <rect id="Rectangle_37" data-name="Rectangle 37" width="37" height="2" rx="1" transform="translate(351 2570)" fill="#4a2a2a"/>
    </g>
  </g>
</svg>
