<svg xmlns="http://www.w3.org/2000/svg" width="83.234" height="118" viewBox="0 0 83.234 118">
  <g id="Group_20" data-name="Group 20" transform="translate(-1179 -1594.921)">
    <g id="Path_13" data-name="Path 13" transform="translate(1179 1584)" fill="#2c0c0c">
      <path d="M 64.42372131347656 94.82670593261719 C 55.77534866333008 94.82670593261719 47.38677597045898 93.62358093261719 39.49100494384766 91.25074768066406 C 31.87170600891113 88.96100616455078 25.03097724914551 85.68454742431641 19.15887641906738 81.51237487792969 C 16.26973342895508 79.45961761474609 13.64746284484863 77.20160675048828 11.36490535736084 74.80107879638672 C 9.063776969909668 72.38098907470703 7.087962627410889 69.79487609863281 5.492376804351807 67.11457824707031 C 2.17967700958252 61.54981994628906 0.5000055432319641 55.64133453369141 0.5000055432319641 49.5532341003418 C 0.5000055432319641 46.68692016601562 1.037948369979858 44.57770538330078 2.098891258239746 43.2841911315918 C 3.070505619049072 42.09959030151367 4.517462730407715 41.52375030517578 6.522462844848633 41.52375030517578 C 11.60609149932861 41.52375030517578 19.60389137268066 45.24136352539062 28.86456298828125 49.54599380493164 C 32.7232551574707 51.33963012695312 36.71227264404297 53.1938362121582 40.91291046142578 54.98723220825195 C 43.28009414672852 57.29727935791016 45.68050765991211 59.60511016845703 48.00264739990234 61.83769226074219 C 55.02786254882812 68.59196472167969 61.66344833374023 74.97164916992188 66.26309204101562 80.31896209716797 C 71.22241973876953 86.08444976806641 73.19792175292969 89.96791839599609 72.30245971679688 92.19130706787109 C 71.59817504882812 93.94003295898438 68.94738006591797 94.82670593261719 64.42372131347656 94.82670593261719 Z M 75.42229461669922 62.73962020874023 C 70.14922332763672 62.73962020874023 64.52256011962891 61.89513397216797 58.22079086303711 60.15790557861328 C 53.23153686523438 58.78250122070312 47.75347900390625 56.8138542175293 41.47742462158203 54.14083099365234 C 35.08869171142578 47.90303039550781 27.84116744995117 40.60264205932617 22.43269157409668 33.68496322631836 C 19.7014331817627 30.19154930114746 17.69060516357422 27.12832069396973 16.28529167175293 24.32019233703613 C 14.77049160003662 21.29327774047852 14.00241947174072 18.59097862243652 14.00241947174072 16.28837776184082 C 14.00241947174072 13.01330661773682 15.71190547943115 11.42126369476318 19.22854804992676 11.42126369476318 C 23.0679759979248 11.42126369476318 28.87979125976562 13.36549186706543 36.03567504882812 17.04374885559082 C 42.58573532104492 20.41059112548828 50.0970344543457 25.16991996765137 57.18592071533203 30.44500541687012 C 64.29493713378906 35.73509216308594 70.69636535644531 41.33479309082031 75.21097564697266 46.21259307861328 C 81.42864990234375 52.93045043945312 82.73378753662109 56.71315002441406 82.73378753662109 58.7034912109375 C 82.73378753662109 59.98527908325195 82.20726013183594 60.93344879150391 81.12413787841797 61.60217666625977 C 79.90166473388672 62.35693359375 77.98329162597656 62.73962020874023 75.42229461669922 62.73962020874023 Z" stroke="none"/>
      <path d="M 64.42372131347656 94.32670593261719 C 67.37972259521484 94.32670593261719 71.06568145751953 93.923828125 71.83866119384766 92.0045166015625 C 72.23744964599609 91.01436614990234 71.93917083740234 89.55120849609375 70.95212554931641 87.65568542480469 C 69.95878601074219 85.74808502197266 68.30100250244141 83.45487213134766 65.884033203125 80.64502716064453 C 61.29986190795898 75.31568908691406 54.67256927490234 68.94397735595703 47.6561393737793 62.19815063476562 C 45.35523986816406 59.9859733581543 42.97737503051758 57.69981384277344 40.63056564331055 55.41032791137695 C 36.45426940917969 53.62528991699219 32.48971176147461 51.78244018554688 28.65380096435547 49.99939346313477 C 19.44690895080566 45.71976470947266 11.49555492401123 42.02375030517578 6.522462844848633 42.02375030517578 C 4.676647186279297 42.02375030517578 3.356139659881592 42.53976440429688 2.485493421554565 43.60127258300781 C 1.499785780906677 44.80305862426758 1.000001072883606 46.80558013916016 1.000001072883606 49.55324172973633 C 1.000001072883606 55.55005645751953 2.656001091003418 61.37250137329102 5.922001361846924 66.85881042480469 C 7.498570442199707 69.50716400146484 9.451739311218262 72.06340789794922 11.72724723815918 74.45655059814453 C 13.98769378662109 76.83382415771484 16.58547782897949 79.07061004638672 19.44847869873047 81.10478210449219 C 25.27612495422363 85.245361328125 32.06783294677734 88.49785614013672 39.63491058349609 90.77190399169922 C 47.48397064208984 93.13070678710938 55.82412338256836 94.32670593261719 64.42372131347656 94.32670593261719 M 75.42229461669922 62.23962783813477 C 77.88912200927734 62.23962783813477 79.71912384033203 61.88202667236328 80.86146545410156 61.17673492431641 C 81.79772186279297 60.59868621826172 82.23378753662109 59.81279373168945 82.23378753662109 58.70348739624023 C 82.23378753662109 57.35344314575195 81.58778381347656 55.60950469970703 80.313720703125 53.52010345458984 C 79.05876922607422 51.46205520629883 77.218505859375 49.11771774291992 74.84403228759766 46.55222702026367 C 70.34964752197266 41.6962890625 63.97253799438477 36.11842727661133 56.88743209838867 30.84614944458008 C 49.81992340087891 25.58696365356445 42.33346176147461 20.84310340881348 35.80710983276367 17.48844146728516 C 28.72161674499512 13.84636497497559 22.98884773254395 11.92127227783203 19.22855567932129 11.92127227783203 C 17.64727783203125 11.92127227783203 16.45687866210938 12.26464176177979 15.69040107727051 12.94182586669922 C 14.90212440490723 13.63830280303955 14.50243186950684 14.76424121856689 14.50243186950684 16.28837966918945 C 14.50243186950684 18.51259613037109 15.25270843505859 21.13961029052734 16.73244667053223 24.09642601013184 C 18.10337066650391 26.83584213256836 20.15373992919922 29.95827293395996 22.82661628723145 33.37699508666992 C 28.19813346862793 40.2474250793457 35.39908981323242 47.50570297241211 41.7596435546875 53.71755981445312 C 47.97894668579102 56.36309432983398 53.40895080566406 58.31275939941406 58.35367965698242 59.67588806152344 C 64.61155700683594 61.40102767944336 70.19474029541016 62.23962783813477 75.42229461669922 62.23962783813477 M 64.42372131347656 95.32670593261719 C 28.84349250793457 95.32670593261719 1.126333359025011e-06 74.83322906494141 1.126333359025011e-06 49.55324172973633 C 1.126333359025011e-06 43.36285400390625 2.391969680786133 41.02375411987305 6.522462844848633 41.02375411987305 C 13.82804107666016 41.02375411987305 26.57722473144531 48.33035659790039 41.19520568847656 54.5640754699707 C 62.83179092407227 75.68430328369141 85.92952728271484 95.32670593261719 64.42372131347656 95.32670593261719 Z M 75.42229461669922 63.23962783813477 C 63.96469116210938 63.23962783813477 52.06393432617188 59.19895553588867 41.19520568847656 54.5640754699707 C 27.03518486022949 40.74198150634766 13.50243186950684 26.28835487365723 13.50243186950684 16.28837966918945 C 13.50243186950684 12.52199554443359 15.66267204284668 10.92126560211182 19.22855949401855 10.92126560211182 C 39.59692001342773 10.92126560211182 105.7015380859375 63.23962783813477 75.42229461669922 63.23962783813477 Z" stroke="none" fill="#707070"/>
    </g>
    <text id="MKS" transform="translate(1193 1705.921)" font-size="27" font-family="Montserrat-Regular, Montserrat"><tspan x="0" y="0">MKS</tspan></text>
  </g>
</svg>
